HIERARCHY
ROOT SpineBase
{
  OFFSET 0.000000 0.000000 0.000000
  CHANNELS 6 Xposition Yposition Zposition Zrotation Xrotation Yrotation
  JOINT SpineMid
  {
    OFFSET -0.000000 35.575432 0.000000
    CHANNELS 3 Zrotation Xrotation Yrotation
    JOINT SpineShoulder
    {
      OFFSET -0.396027 26.359563 -0.902333
      CHANNELS 3 Zrotation Xrotation Yrotation
      JOINT Neck
      {
        OFFSET -0.172608 8.699324 -0.675175
        CHANNELS 3 Zrotation Xrotation Yrotation
        JOINT Head
        {
          OFFSET -0.729727 10.610546 3.565137
          CHANNELS 3 Zrotation Xrotation Yrotation
          End Site
          {
            OFFSET 0 0 0
          }
        }
      }
      JOINT ShoulderLeft
      {
        OFFSET -11.361030 -7.565379 -11.883114
        CHANNELS 3 Zrotation Xrotation Yrotation
        JOINT ElbowLeft
        {
          OFFSET -4.817881 -26.169160 0.346813
          CHANNELS 3 Zrotation Xrotation Yrotation
          JOINT WristLeft
          {
            OFFSET 0.498883 -19.514092 11.999995
            CHANNELS 3 Zrotation Xrotation Yrotation
            JOINT HandLeft
            {
              OFFSET -1.209243 -5.562984 -3.395067
              CHANNELS 3 Zrotation Xrotation Yrotation
              JOINT HandTipLeft
              {
                OFFSET -1.676024 -5.998545 -0.607171
                CHANNELS 3 Zrotation Xrotation Yrotation
                End Site
                {
                  OFFSET 0 0 0
                }
              }
              JOINT ThumbLeft
              {
                OFFSET -2.665058 3.150151 3.428605
                CHANNELS 3 Zrotation Xrotation Yrotation
                End Site
                {
                  OFFSET 0 0 0
                }
              }
            }
          }
        }
      }
      JOINT ShoulderRight
      {
        OFFSET 9.349865 -5.227128 -4.490257
        CHANNELS 3 Zrotation Xrotation Yrotation
        JOINT ElbowRight
        {
          OFFSET -23.110270 -19.862191 -10.214568
          CHANNELS 3 Zrotation Xrotation Yrotation
          JOINT WristRight
          {
            OFFSET -6.951534 -21.722252 7.284876
            CHANNELS 3 Zrotation Xrotation Yrotation
            JOINT HandRight
            {
              OFFSET 3.952252 -6.396185 4.341889
              CHANNELS 3 Zrotation Xrotation Yrotation
              JOINT HandTipRight
              {
                OFFSET -2.293692 -7.283082 2.607326
                CHANNELS 3 Zrotation Xrotation Yrotation
                End Site
                {
                  OFFSET 0 0 0
                }
              }
              JOINT ThumbRight
              {
                OFFSET -3.482709 0.325411 2.318841
                CHANNELS 3 Zrotation Xrotation Yrotation
                End Site
                {
                  OFFSET 0 0 0
                }
              }
            }
          }
        }
      }
    }
  }
  JOINT HipLeft
  {
    OFFSET -7.115156 0.948900 -4.757379
    CHANNELS 3 Zrotation Xrotation Yrotation
    JOINT KneeLeft
    {
      OFFSET -0.035650 -31.096789 0.751760
      CHANNELS 3 Zrotation Xrotation Yrotation
      JOINT AnkleLeft
      {
        OFFSET -0.310075 -33.973899 -2.525032
        CHANNELS 3 Zrotation Xrotation Yrotation
        JOINT FootLeft
        {
          OFFSET 3.387850 -3.315011 -13.006590
          CHANNELS 3 Zrotation Xrotation Yrotation
          End Site
          {
            OFFSET 0 0 0
          }
        }
      }
    }
  }
  JOINT HipRight
  {
    OFFSET 6.324139 0.931597 -1.777257
    CHANNELS 3 Zrotation Xrotation Yrotation
    JOINT KneeRight
    {
      OFFSET 5.313413 -33.006038 5.223659
      CHANNELS 3 Zrotation Xrotation Yrotation
      JOINT AnkleRight
      {
        OFFSET 2.106970 -33.787341 1.620630
        CHANNELS 3 Zrotation Xrotation Yrotation
        JOINT FootRight
        {
          OFFSET 3.171624 -3.364375 -13.006585
          CHANNELS 3 Zrotation Xrotation Yrotation
          End Site
          {
            OFFSET 0 0 0
          }
        }
      }
    }
  }
}
MOTION
Frames: 14
Frame Time: 0.033333
30.542548 71.724858 269.019495 0.007371 0.284791 31.828139 -0.628694 0.655211 -31.848969 -0.141196 0.262742 -0.039465 5.662507 -2.279132 -1.474126 0.000000 0.000000 0.000000 1.014323 -0.771572 0.070198 -0.000000 0.000000 0.000000 -27.370856 -28.290186 17.952348 31.592431 2.291513 -25.701301 0.000000 0.000000 0.000000 0.000000 0.000000 0.000000 13.627782 -7.805501 3.234762 -12.054833 5.483169 -0.675104 7.397326 -4.511642 0.585639 -2.215415 17.603478 -3.649039 0.000000 0.000000 0.000000 0.000000 0.000000 0.000000 4.071853 6.873447 -32.087587 -1.256848 -9.276802 -0.077571 0.797356 1.335105 2.653059 0.000000 0.000000 0.000000 -6.174772 -8.586016 -34.030600 0.640395 11.199465 1.724516 -3.655575 -11.392688 4.136415 0.000000 0.000000 0.000000
30.573773 71.673537 269.086954 0.019604 0.180734 27.588297 -0.644027 0.649338 -27.608388 -0.100237 0.259477 -0.035650 5.147273 -3.420186 -1.385354 0.000000 0.000000 0.000000 -0.577216 -0.792296 0.038926 1.529974 0.074481 0.005584 -19.366120 -25.472185 14.539253 20.998603 5.056569 -18.158178 0.000000 0.000000 0.000000 0.000000 0.000000 0.000000 11.385371 -6.754526 2.783222 -9.523803 4.918215 -0.816315 7.163033 -6.226914 0.227917 -2.850974 17.347451 -2.564128 0.000000 0.000000 0.000000 0.000000 0.000000 0.000000 3.195188 6.353926 -27.778048 -1.307163 -8.094770 -0.060062 0.989296 1.063347 1.757400 0.000000 0.000000 0.000000 -5.193017 -8.168306 -29.586399 0.737897 10.489812 1.620173 -2.539598 -7.979939 2.588759 0.000000 0.000000 0.000000
30.560120 71.524599 269.148832 0.054793 0.089682 20.168672 -0.665202 0.584310 -20.186380 -0.030696 0.260938 -0.026985 4.649389 -4.514765 -1.340817 0.000000 0.000000 0.000000 -1.214860 -0.680138 0.005006 2.016994 0.010467 0.024702 -11.461084 -19.306544 10.103270 10.465551 3.165251 -9.326762 0.000000 0.000000 0.000000 0.000000 0.000000 0.000000 8.893731 -5.629273 2.360543 -6.741363 4.352460 -0.925118 5.609019 -7.344755 -0.628107 -2.563423 15.393601 -0.816983 0.000000 0.000000 0.000000 0.000000 0.000000 0.000000 1.813728 5.412890 -20.266755 -1.016650 -6.499463 -0.015861 0.870148 0.909687 1.118657 0.000000 0.000000 0.000000 -3.660865 -7.667701 -21.858220 0.725922 9.494610 1.457092 -2.172615 -7.124454 1.958203 0.000000 0.000000 0.000000
30.514508 71.295331 269.212416 0.114356 0.018843 10.198819 -0.115885 0.001703 -10.198836 -0.571061 0.631235 -0.028666 3.752830 -5.430674 -1.209865 0.000000 0.000000 0.000000 -1.464683 -0.630597 -0.014570 2.035971 -0.000201 0.027114 -5.608728 -13.122421 5.997048 4.380908 0.506392 -3.559031 0.000000 0.000000 0.000000 0.000000 0.000000 0.000000 6.757303 -4.757051 2.121503 -4.305830 3.916720 -0.988663 4.374635 -6.750047 -0.518501 -2.161111 12.171200 -0.308919 0.000000 0.000000 0.000000 0.000000 0.000000 0.000000 0.459354 3.853600 -10.225491 -0.687901 -4.569004 0.017745 0.547251 0.867969 1.131162 0.000000 0.000000 0.000000 -1.960524 -6.494046 -11.480700 0.643031 7.843633 1.207213 -2.888191 -10.382048 2.187295 0.000000 0.000000 0.000000
30.426524 70.989327 269.263026 0.230843 -0.015675 -0.849550 -0.231050 0.012250 0.849606 -0.000000 0.000000 0.000000 3.019088 -5.586290 -1.270281 0.000000 0.000000 0.000000 -1.630163 -0.162763 0.006029 1.630187 0.162526 -0.010656 -1.277154 -7.232412 2.357889 -0.044210 -3.579732 0.681437 0.000000 0.000000 0.000000 0.000000 0.000000 0.000000 5.081933 -3.716178 2.012459 -2.902700 3.840246 -1.133532 3.499625 -4.856156 0.341295 -1.194171 7.560020 -0.343229 0.000000 0.000000 0.000000 0.000000 0.000000 0.000000 -0.428697 1.807909 0.846549 -0.194059 -2.562060 0.029103 -0.019468 0.985409 1.699318 0.000000 0.000000 0.000000 -0.538489 -4.953905 -0.017621 0.097725 6.275042 0.933944 -4.969061 -20.316407 2.199702 0.000000 0.000000 0.000000
30.306714 70.617341 269.306277 0.461058 -0.021939 -10.820579 -0.456980 -0.065008 10.820408 -0.000000 0.000000 0.000000 3.174556 -6.099985 -1.339005 0.000000 0.000000 0.000000 -1.723260 -0.227680 0.015610 1.723336 0.227107 -0.022450 4.646709 -2.507548 -2.239904 -4.655279 -3.315176 4.035080 0.000000 0.000000 0.000000 0.000000 0.000000 0.000000 4.356911 -3.232829 1.746292 -1.914461 3.509634 -0.919089 3.967160 -4.825447 0.959014 -1.395722 7.135545 -0.722165 0.000000 0.000000 0.000000 0.000000 0.000000 0.000000 -0.456980 -0.065008 10.820408 0.146387 -0.934670 -0.001156 -0.419527 1.142710 1.286367 0.000000 0.000000 0.000000 -0.139178 -3.462373 10.234157 0.179905 4.762391 0.675761 -10.124966 -38.023606 0.886330 0.000000 0.000000 0.000000
30.156096 70.181476 269.332220 0.787616 0.016531 -18.144033 -0.743311 -0.260970 18.142226 0.597680 0.725425 0.057020 2.753527 -6.972618 -1.419168 0.000000 0.000000 0.000000 -1.648737 -1.027000 -0.038746 1.050014 0.302747 -0.044673 7.591625 0.664186 -4.878557 -9.324254 -14.010372 8.320959 0.000000 0.000000 0.000000 0.000000 0.000000 0.000000 2.720577 -3.094832 1.145189 -0.408093 3.128366 -0.446654 2.923234 -3.832407 1.454284 0.637583 6.420340 -1.153114 0.000000 0.000000 0.000000 0.000000 0.000000 0.000000 -0.764381 -2.211195 18.128729 1.513636 0.672471 -0.071775 -1.074368 1.379950 1.005765 0.000000 0.000000 0.000000 -0.755798 -2.077609 17.773835 0.829448 2.743451 0.425614 -8.861436 -32.458908 0.313704 0.000000 0.000000 0.000000
29.965136 69.703518 269.351646 1.126232 0.070215 -22.756002 -0.431889 0.211820 22.786580 0.154649 0.357900 0.053910 3.289603 -6.937849 -1.689993 0.000000 0.000000 0.000000 -0.965604 -0.789061 -0.097214 -0.619248 0.437032 -0.368183 9.823073 2.501628 -6.066012 -10.810289 -17.924633 9.832413 0.000000 0.000000 0.000000 0.000000 0.000000 0.000000 1.947422 -2.569187 0.579746 0.239666 2.904356 0.018452 3.640480 -4.823198 1.855879 1.441285 7.878116 -1.305900 0.000000 0.000000 0.000000 0.000000 0.000000 0.000000 -0.646299 -3.550887 22.746809 2.130106 1.496170 -0.137132 -1.288936 1.455491 0.098786 0.000000 0.000000 0.000000 -1.011436 -0.500350 22.750896 0.508094 0.865014 0.074485 -11.524458 -39.615868 -0.534338 0.000000 0.000000 0.000000
29.762211 69.440547 269.386273 1.537806 0.079754 -24.009023 -0.391194 0.204602 24.053472 0.122450 0.361322 0.069645 3.893556 -6.866549 -2.003696 0.000000 0.000000 0.000000 -0.213865 -0.900716 -0.078860 -2.104692 0.215066 -0.603130 10.747780 3.645970 -6.539695 -12.122833 -22.053060 10.999867 0.000000 0.000000 0.000000 0.000000 0.000000 0.000000 2.327654 -2.362953 -0.115558 -0.507807 2.816091 0.700106 5.248739 -6.363142 2.288218 1.698345 10.716885 -1.743209 0.000000 0.000000 0.000000 0.000000 0.000000 0.000000 -1.172901 -3.935663 23.983715 2.772356 1.313243 -0.174485 -1.641485 1.720905 0.130792 0.000000 0.000000 0.000000 -1.372383 -0.698473 23.999587 0.889328 0.807705 0.086746 -10.825054 -36.409072 -0.217339 0.000000 0.000000 0.000000
29.772785 69.038768 269.329667 2.199858 0.275212 -21.157012 -0.376127 0.076619 21.218717 0.164361 0.499899 0.098224 4.224071 -6.710589 -2.307210 0.000000 0.000000 0.000000 -0.666325 -4.710231 0.579643 -3.078599 -0.221733 -1.728582 9.878153 11.659495 -6.602983 -9.063470 -23.452590 10.022807 0.000000 0.000000 0.000000 0.000000 0.000000 0.000000 1.571915 -2.093457 -0.694935 -0.265176 2.501331 1.220168 6.005817 -5.757544 3.317422 2.041176 11.619201 -3.159149 0.000000 0.000000 0.000000 0.000000 0.000000 0.000000 -2.404034 -3.778452 21.083602 3.201092 0.543834 -0.160912 -0.842384 2.497713 -2.888758 0.000000 0.000000 0.000000 -2.862507 -2.066356 20.816778 2.399317 1.362708 0.367748 -6.533506 -22.104877 -4.629056 0.000000 0.000000 0.000000
29.632184 69.271157 269.419346 2.645278 0.148319 -22.113628 -0.313934 0.185515 22.193299 0.230204 0.346983 0.124886 4.006844 -7.244351 -2.497867 0.000000 0.000000 0.000000 -0.262704 -3.054044 0.291899 -4.270894 -1.532796 -1.609342 11.747932 9.159931 -7.131606 -9.095453 -18.495901 10.220140 0.000000 0.000000 0.000000 0.000000 0.000000 0.000000 1.873556 -2.255216 -0.782139 -0.539564 2.965794 1.446614 5.671192 -6.779528 2.907614 1.509777 13.946893 -3.599292 0.000000 0.000000 0.000000 0.000000 0.000000 0.000000 -2.750060 -3.895567 22.040695 3.094178 0.711407 -0.158935 -1.028747 2.271399 -2.021495 0.000000 0.000000 0.000000 -3.232150 -1.953239 21.820475 2.502552 1.278194 0.337341 -3.112231 -8.905950 -2.010587 0.000000 0.000000 0.000000
29.378935 69.997376 269.614603 2.974423 -0.180025 -23.196248 -0.185724 0.462606 23.295704 0.263197 0.007112 0.152147 3.438945 -7.514204 -2.603578 0.000000 0.000000 0.000000 0.801707 2.665498 -0.852845 -5.536307 -3.205201 -0.626662 15.410683 -4.928863 -6.171860 -11.628239 -2.224115 9.596789 0.000000 0.000000 0.000000 0.000000 0.000000 0.000000 1.767959 -1.545800 -1.427615 -1.053893 3.178657 1.870344 4.506510 -7.884668 1.976327 1.873045 14.591558 -2.704337 0.000000 0.000000 0.000000 0.000000 0.000000 0.000000 -2.843412 -3.627443 23.151706 2.406925 1.060026 -0.127194 -1.861144 1.430909 2.253096 0.000000 0.000000 0.000000 -2.805111 -1.005848 23.176294 1.456157 0.971056 0.118019 -3.391665 -5.935326 3.057849 0.000000 0.000000 0.000000
29.066083 71.076581 269.881095 3.075450 -0.849757 -24.329056 -0.149733 0.341703 24.440497 0.228239 -0.333904 0.150945 2.871150 -7.663545 -2.569573 0.000000 0.000000 0.000000 3.154489 11.570684 -2.851672 -6.941873 -4.454939 0.922264 18.950010 -25.703970 -1.301656 -12.226907 17.388181 7.280567 0.000000 0.000000 0.000000 0.000000 0.000000 0.000000 1.254377 0.899673 -2.859990 0.031253 1.183587 3.695534 1.546861 -6.697315 0.093094 2.819160 12.283712 -0.987294 0.000000 0.000000 0.000000 0.000000 0.000000 0.000000 -3.102815 -2.843794 24.319890 1.883303 1.294480 -0.089984 -3.439181 -0.062933 9.352379 0.000000 0.000000 0.000000 -3.152257 -0.493261 24.338296 1.542206 1.212097 0.133208 -5.243930 -6.620953 11.056406 0.000000 0.000000 0.000000
28.761633 72.353840 270.185151 2.936357 -1.842166 -25.543003 -0.143620 0.077167 25.659929 0.166219 -0.623570 0.129070 1.780649 -7.871674 -2.274661 0.000000 0.000000 0.000000 6.837669 22.505417 -6.006720 -8.572268 -5.952388 2.723532 23.675234 -43.881433 5.773984 -10.739315 30.834296 3.994056 0.000000 0.000000 0.000000 0.000000 0.000000 0.000000 3.564990 1.438128 -2.878618 -4.657079 1.321791 2.994604 2.953453 -7.636083 -0.997494 2.657355 13.929477 0.371350 0.000000 0.000000 0.000000 0.000000 0.000000 0.000000 -3.316726 -1.834887 25.585513 0.848596 2.065083 0.002854 -4.948005 -2.786571 18.952109 0.000000 0.000000 0.000000 -1.839042 0.549916 25.739122 0.123462 2.122599 -0.005003 -8.037874 -12.018595 22.904784 0.000000 0.000000 0.000000
